<?xml version="1.0" encoding="UTF-8" standalone="no"?>
<svg
   xmlns:dc="http://purl.org/dc/elements/1.1/"
   xmlns:cc="http://creativecommons.org/ns#"
   xmlns:rdf="http://www.w3.org/1999/02/22-rdf-syntax-ns#"
   xmlns:svg="http://www.w3.org/2000/svg"
   xmlns="http://www.w3.org/2000/svg"
   viewBox="0 0 420 120"
   height="120"
   width="420"
   xml:space="preserve"
   id="svg2"
   version="1.1"><metadata
     id="metadata8"><rdf:RDF><cc:Work
         rdf:about=""><dc:format>image/svg+xml</dc:format><dc:type
           rdf:resource="http://purl.org/dc/dcmitype/StillImage" /></cc:Work></rdf:RDF></metadata><defs
     id="defs6" /><g
     transform="matrix(1.3333333,0,0,-1.3333333,0,120)"
     id="g10"><g
       transform="scale(0.1)"
       id="g12"><path
         id="path14"
         style="fill:#3f4444;fill-opacity:1;fill-rule:nonzero;stroke:none"
         d="M 2339.92,187.699 V 308.711 H 2350 V 196.762 h 39.1 v -9.063 z" /><path
         id="path16"
         style="fill:#3f4444;fill-opacity:1;fill-rule:nonzero;stroke:none"
         d="m 2610.74,187.699 51.17,121.012 h 8.91 l 50.86,-121.012 h -11.06 l -16.13,38.43 h -56.4 l -16.25,-38.43 z m 51.88,98.16 -20.67,-50.507 h 48.87 L 2670,285.859 c -1.25,3.051 -2.46,6.95 -3.71,11.762 -1.02,-4.461 -2.23,-8.402 -3.67,-11.762 z" /><path
         id="path18"
         style="fill:#3f4444;fill-opacity:1;fill-rule:nonzero;stroke:none"
         d="m 2992.11,187.699 v 121.012 h 22.66 c 3.04,0 5.7,-0.082 8.04,-0.191 2.39,-0.079 4.34,-0.321 5.9,-0.668 7.38,-1.332 13.36,-4.762 17.97,-10.313 4.57,-5.551 6.87,-11.988 6.87,-19.379 0,-12.89 -5.89,-21.441 -17.61,-25.699 9.06,-0.781 16.17,-3.91 21.29,-9.371 5.15,-5.512 7.73,-12.82 7.73,-22 0,-10.738 -3.87,-19.289 -11.56,-25.699 -3.48,-3.012 -7.11,-5.039 -10.86,-6.129 -3.75,-1.063 -8.99,-1.563 -15.66,-1.563 z m 10.08,111.75 V 255.16 h 13.75 c 18.47,0 27.69,7.5 27.69,22.5 0,14.531 -9.25,21.789 -27.85,21.789 z m 0,-53.359 v -49.328 h 21.83 c 10.63,0 18.32,2.066 23.17,6.207 5.35,4.57 8.04,10.66 8.04,18.281 0,16.559 -10.85,24.84 -32.57,24.84 z" /><path
         id="path20"
         style="fill:#ef3340;fill-opacity:1;fill-rule:nonzero;stroke:none"
         d="m 932.77,400.98 c 0,3.86 0.121,6.872 0.351,9.059 0.238,2.191 1.801,4.492 4.731,6.871 1.449,0.981 2.769,1.719 3.988,2.192 1.211,0.507 2.539,1.207 3.98,2.187 9.18,4.332 17.891,9.18 26.129,14.492 8.211,5.309 16.922,11.129 26.102,17.418 39.179,23.211 77.149,49.223 113.899,77.973 36.76,28.789 71.8,57.418 105.16,85.976 1.48,3.403 3.87,6.293 7.27,8.711 3.39,2.422 6.28,4.84 8.71,7.231 6.29,5.351 12.22,10.89 17.77,16.711 5.55,5.789 11.25,12.078 17.03,18.828 0.98,0.512 0.86,1.211 -0.35,2.191 -1.21,0.981 -1.33,1.68 -0.35,2.192 7.73,9.648 15,20.187 21.76,31.558 6.75,11.371 10.15,25.231 10.15,41.68 -0.51,20.309 -6.91,35.199 -19.22,44.609 -12.34,9.45 -26.72,16.09 -43.16,19.961 -8.71,2.418 -18.13,3.981 -28.28,4.731 -10.16,0.699 -20.08,1.09 -29.77,1.09 -5.78,0 -11.72,-0.621 -17.77,-1.84 -6.06,-1.211 -11.72,-2.301 -17.03,-3.242 -0.51,-0.969 -0.12,-1.598 1.09,-1.829 1.21,-0.242 1.56,-0.351 1.06,-0.351 l -0.71,-0.75 h -1.44 v 0.75 c 0,0.973 -0.51,1.441 -1.45,1.441 -6.29,-2.89 -12.11,-3.011 -17.42,-0.351 -5.31,2.652 -10.62,5.941 -15.98,9.801 -1.44,1.921 -2.89,4.109 -4.33,6.531 -1.45,2.418 -2.42,4.801 -2.89,7.219 0.93,4.378 4.45,7.5 10.5,9.46 6.06,1.911 11.25,3.629 15.59,5.071 8.24,2.898 15.74,5.199 22.5,6.879 6.76,1.718 15.23,3.05 25.39,3.98 21.29,0.512 41.33,-1.91 60.2,-7.219 18.86,-5.351 35.31,-11.882 49.33,-19.613 14.03,-7.738 26.84,-20.078 38.44,-36.988 5.31,-8.211 10.39,-17.27 15.23,-27.192 4.85,-9.918 7.27,-21.168 7.27,-33.75 0.47,-11.597 -1.09,-22.847 -4.73,-33.707 -3.63,-10.902 -7.61,-20.711 -11.95,-29.382 -4.84,-10.149 -10.04,-19.489 -15.59,-27.93 -5.58,-8.469 -11.52,-16.328 -17.77,-23.59 -13.55,-15.469 -28.44,-29.379 -44.65,-41.719 -16.17,-12.3 -32.03,-24.3 -47.5,-35.898 -15.94,-12.582 -32.38,-24.652 -49.33,-36.25 -16.92,-11.641 -34.07,-22.973 -51.49,-34.102 -34.84,-22.73 -71.09,-44.492 -108.83,-65.308 52.23,-3.364 102.66,-9.774 151.25,-19.223 48.6,-9.418 95.63,-20.43 141.1,-33.008 10.62,-3.871 21.64,-7.621 33.01,-11.211 11.36,-3.629 22.85,-6.91 34.45,-9.8 6.8,-2.43 12.69,-4.731 17.77,-6.918 5.08,-2.153 9.81,-5.43 14.14,-9.762 h -3.63 c 0.98,-0.512 1.48,-0.86 1.48,-1.102 0,-0.226 0.24,-0.617 0.71,-1.09 -7.74,-0.468 -15.35,0.743 -22.85,3.633 -7.5,2.891 -15.59,3.129 -24.3,0.699 3.4,0 7.03,-1.441 10.9,-4.332 2.89,-0.976 5.66,-1.558 8.32,-1.796 2.65,-0.274 5.19,-0.864 7.62,-1.832 0.5,-0.469 0.74,-0.981 0.74,-1.45 0,-0.98 0.23,-1.449 0.7,-1.449 -3.87,-0.5 -7.5,0.359 -10.86,2.539 -3.4,2.192 -6.05,2.039 -8.01,-0.351 -34.8,8.211 -70.23,15.589 -106.25,22.113 -36.01,6.527 -72.18,12.699 -108.43,18.519 -18.4,3.86 -36.65,6.989 -54.77,9.411 -18.16,2.418 -36.17,4.847 -54.06,7.269 -9.69,0.93 -19.69,1.559 -30.12,1.789 -10.39,0.238 -20.039,1.102 -28.98,2.539 -8.949,1.449 -16.449,4.34 -22.5,8.711 -6.059,4.34 -9.07,11.141 -9.07,20.32 z m -13.79,7.258 c -4.839,-12.109 -8.359,-21.168 -10.5,-27.218 -2.191,-6.059 -4.14,-11.489 -5.82,-16.329 -1.68,-4.812 -3.519,-10.39 -5.43,-16.679 -1.96,-6.293 -5.082,-15.473 -9.46,-27.543 -5.782,-14.02 -10.149,-30 -13.04,-47.891 -2.429,-0.976 -4.109,-2.656 -5.082,-5.078 -0.976,-2.422 -2.187,-5.309 -3.628,-8.711 -0.469,-1.449 -1.68,-1.68 -3.641,-0.699 -1.91,0.93 -3.859,1.441 -5.777,1.441 -0.981,0 -1.832,-0.269 -2.543,-0.742 -0.739,-0.469 -1.559,-0.469 -2.539,0 -1.95,0.981 -3.399,1.949 -4.372,2.891 -0.937,0.98 -2.66,1.718 -5.078,2.191 -1.449,-0.473 -3.011,-1.101 -4.691,-1.801 -1.719,-0.742 -3.508,-0.621 -5.469,0.352 -2.379,9.687 -2.379,18.867 0,27.578 2.43,8.672 4.852,17.891 7.27,27.539 l 21.761,73.281 c 9.68,26.602 18.75,52.461 27.219,77.621 8.442,25.149 18.012,50.039 28.641,74.719 17.89,43.051 36.168,85.711 54.758,128.012 18.64,42.348 37.851,84.027 57.701,125.156 1.91,2.891 3.47,5.781 4.69,8.711 1.21,2.891 2.81,6.289 4.72,10.16 0.98,2.891 2.19,6.012 3.63,9.41 1.45,3.403 2.9,5.551 4.34,6.52 2.42,2.891 5.94,4.73 10.55,5.43 4.57,0.742 8.32,1.601 11.21,2.543 6.8,0.507 13.44,-0.942 19.96,-4.332 6.52,-3.399 10.27,-6.758 11.25,-10.161 1.91,-3.398 3.01,-6.519 3.28,-9.41 0.23,-2.929 0.82,-5.82 1.8,-8.719 -0.98,0 -2.42,-1.441 -4.34,-4.371 -0.51,-0.937 0.24,-1.211 2.15,-0.699 1.95,0.469 2.19,0.231 0.74,-0.75 0.47,-1.441 0,-1.789 -1.44,-1.09 -1.45,0.739 -2.66,1.09 -3.64,1.09 -0.97,-1.441 -1.32,-2.769 -1.09,-3.98 0.23,-1.211 0.35,-2.301 0.35,-3.282 -1.91,0 -3.36,-0.937 -4.33,-2.886 -17.43,-29.032 -33.87,-58.524 -49.34,-88.481 -15.47,-30 -30.23,-60.472 -44.262,-91.41 C 985.469,580.16 971.801,547.031 958.52,511.25 945.23,475.43 932.031,441.09 918.98,408.238 Z" /><path
         id="path22"
         style="fill:#ef3340;fill-opacity:1;fill-rule:nonzero;stroke:none"
         d="m 1441.99,501.801 c 0.51,-3.36 0.24,-7.11 -0.7,-11.25 -0.98,-4.102 -2.42,-7.352 -4.38,-9.77 -0.97,-2.422 -2.18,-5.582 -3.63,-9.453 -1.44,-3.867 -3.12,-7.226 -5.08,-10.156 -3.86,-3.363 -7.34,-8.32 -10.5,-14.844 -3.13,-6.558 -6.65,-11.019 -10.51,-13.437 0,0 -2.42,-2.539 -7.27,-7.621 -4.84,-5.071 -10.62,-10.391 -17.42,-15.969 -6.76,-5.551 -13.91,-10.512 -21.37,-14.852 -7.5,-4.371 -13.9,-6.051 -19.25,-5.07 -7.74,-2.93 -15.24,-3.988 -22.47,-3.289 -7.26,0.75 -13.79,2.66 -19.61,5.82 -5.78,3.129 -10.62,7.5 -14.49,13.051 -3.86,5.551 -6.29,11.949 -7.26,19.219 -0.47,0.98 -0.71,2.769 -0.71,5.429 0,2.692 0.71,4.493 2.15,5.469 -1.44,3.363 -1.33,6.992 0.39,10.863 1.68,3.86 2.54,7.258 2.54,10.149 l 13.05,37 c 1.44,0.5 2.3,1.32 2.54,2.531 0.23,1.219 0.86,1.84 1.79,1.84 2.93,6.758 6.92,13.519 12,20.309 5.08,6.761 10.27,13.05 15.58,18.871 2.89,3.871 6.17,7.968 9.81,12.308 3.63,4.371 7.5,8.242 11.6,11.602 4.1,3.398 8.32,5.578 12.69,6.519 4.34,0.981 8.48,-0.23 12.35,-3.59 4.8,-0.98 8.94,-2.429 12.3,-4.378 0.51,-0.981 1.1,-0.981 1.84,0 0.7,0.976 1.56,1.207 2.54,0.738 0.94,0.469 2.77,0.469 5.43,0 2.65,-0.5 5.43,-1.211 8.36,-2.18 2.89,-0.98 5.54,-1.922 7.97,-2.89 2.42,-0.981 4.1,-1.961 5.07,-2.891 l 7.27,-10.16 c 5.78,1.441 14.84,3.121 27.19,5.082 12.34,1.91 25.27,3.469 38.79,4.679 13.55,1.219 26.13,1.719 37.73,1.45 11.6,-0.231 20.08,-2.032 25.39,-5.43 0.47,-0.469 1.09,-0.699 1.8,-0.699 0.74,0 1.37,-0.281 1.83,-0.75 0.47,-0.461 0.98,-0.742 1.45,-0.742 2.89,0.511 4.49,0.281 4.73,-0.7 0.23,-0.98 1.32,-1.449 3.24,-1.449 2.42,-1.949 2.93,-3.98 1.44,-6.172 -1.44,-2.187 -3.12,-3.75 -5.08,-4.718 -5.31,-0.469 -8.55,-1.219 -9.76,-2.192 -1.21,-0.937 -2.42,-1.797 -3.63,-2.539 -1.21,-0.699 -3.28,-1.211 -6.18,-1.449 -2.89,-0.231 -8.47,-0.352 -16.67,-0.352 -6.76,0 -13.91,-0.468 -21.41,-1.437 -7.5,-0.981 -15.12,-2.422 -22.85,-4.379 -7.74,-1.91 -15.12,-3.75 -22.11,-5.434 -7.03,-1.679 -12.93,-3.238 -17.78,-4.718 -0.5,-1.918 -0.74,-3.481 -0.74,-4.692 0,-1.207 0,-2.308 0,-3.277 z m -52.22,34.84 c -2.43,0.937 -4.85,1.449 -7.27,1.449 -2.38,0 -4.57,0.93 -6.52,2.89 l -2.15,-2.191 c -2.93,-2.418 -5.24,-5.309 -6.92,-8.711 -1.68,-3.359 -3.75,-6.988 -6.17,-10.859 -2.42,-2.891 -5.54,-7.27 -9.41,-13.047 -3.87,-5.82 -7.74,-11.992 -11.6,-18.512 -3.87,-6.531 -7.39,-12.82 -10.55,-18.871 -3.13,-6.059 -4.92,-10.738 -5.43,-14.141 -1.45,-6.289 -3.36,-13.046 -5.78,-20.308 -2.42,-7.27 -1.95,-14.262 1.44,-21.02 10.63,3.871 19.93,8.668 27.93,14.489 7.97,5.82 15.36,12.351 22.11,19.57 l 4.38,5.082 c 1.91,3.398 5.55,9.687 10.86,18.867 5.31,9.184 9.8,18.633 13.43,28.281 3.64,9.692 5.32,18.282 5.08,25.782 -0.27,7.5 -4.72,11.25 -13.43,11.25 z" /><path
         id="path24"
         style="fill:#ef3340;fill-opacity:1;fill-rule:nonzero;stroke:none"
         d="m 1817.03,429.262 c -3.87,-2.422 -5.55,-3.524 -5.08,-3.242 0.47,0.23 -0.23,-1.329 -2.18,-4.731 -3.36,-1.949 -8.32,-4.73 -14.85,-8.359 -6.52,-3.629 -13.79,-6.989 -21.76,-10.16 -8,-3.122 -16.09,-5.43 -24.33,-6.872 -8.21,-1.449 -15.47,-0.976 -21.76,1.442 -8.2,0.469 -14.84,2.43 -19.92,5.82 -5.08,3.36 -9.81,7.461 -14.14,12.309 0.47,2.422 -0.28,4.84 -2.19,7.261 -1.95,2.43 -3.16,5.321 -3.63,8.719 0,0 -0.24,0.231 -0.74,0.699 -1.45,4.372 -2.66,8.711 -3.6,13.082 -0.51,1.45 -0.62,2.782 -0.39,3.989 0.24,1.211 0.39,2.769 0.39,4.73 0.47,0.93 0.47,2.031 0,3.242 -0.51,1.207 -0.74,2.77 -0.74,4.719 -0.98,8.211 -1.56,14.61 -1.8,19.219 -0.27,4.609 -0.15,10.75 0.35,18.48 -2.89,-2.379 -5.31,-5.199 -7.26,-8.32 -1.92,-3.168 -5.31,-5.699 -10.16,-7.617 0.51,-0.973 0,-2.192 -1.44,-3.633 l -2.89,-2.187 -2.19,-4.332 c -0.98,-0.981 -1.56,-1.571 -1.8,-1.84 -0.27,-0.231 -0.62,-0.59 -1.09,-1.059 -0.98,-0.973 -1.72,-1.48 -2.19,-1.48 1.45,0.98 2.42,1.839 2.89,2.539 0.51,0.742 0.27,0.621 -0.7,-0.352 -0.98,-0.469 -1.56,-0.976 -1.84,-1.449 -0.23,-0.469 -0.58,-0.969 -1.09,-1.438 -0.94,-0.472 -1.45,-0.742 -1.45,-0.742 l -2.89,-2.898 h -0.74 c -0.94,-0.973 -1.44,-1.563 -1.44,-1.789 0,-0.282 0.27,-0.121 0.74,0.347 -12.58,-12.578 -25.04,-24.41 -37.35,-35.55 -12.34,-11.129 -25.54,-21.989 -39.57,-32.649 -2.38,-0.469 -4.57,-1.332 -6.52,-2.539 -1.91,-1.211 -4.8,-1.801 -8.71,-1.801 0.51,0 -0.24,-0.468 -2.15,-1.441 -5.82,-0.981 -11.37,-1.84 -16.68,-2.539 -5.35,-0.75 -10.66,-0.391 -15.98,1.09 v 0.699 c 0,0.512 -0.46,0.75 -1.44,0.75 -4.84,0.461 -9.42,2.301 -13.79,5.422 -4.34,3.168 -6.99,6.648 -7.97,10.508 -1.44,1.961 -2.3,3.75 -2.54,5.472 -0.23,1.68 -0.62,3.75 -1.09,6.129 -1.45,7.27 -0.98,14.301 1.44,21.059 2.43,6.761 5.08,13.051 7.97,18.871 2.42,6.75 6.29,12.93 11.64,18.469 5.32,5.589 10.16,11.019 14.5,16.332 9.17,6.8 18.98,13.32 29.37,19.609 10.39,6.289 20.2,13.52 29.37,21.762 6.76,2.886 13.05,5.898 18.87,9.058 5.82,3.129 12.81,5.66 21.06,7.621 3.36,-0.511 6.13,-0.632 8.32,-0.351 2.18,0.23 5.19,0.109 9.06,-0.391 3.87,-1.449 6.52,-3.64 7.97,-6.527 1.48,-2.891 1.21,-5.781 -0.7,-8.711 -9.69,-4.84 -19.11,-9.18 -28.29,-13.051 -9.21,-3.859 -17.89,-7.961 -26.13,-12.34 -8.2,-4.34 -15.23,-9.879 -21.01,-16.679 -5.82,-6.762 -12.11,-13.52 -18.87,-20.313 0,-1.449 -1.21,-2.656 -3.63,-3.629 -1.96,-6.289 -5.08,-11.371 -9.46,-15.238 0,-0.941 -0.35,-1.563 -1.05,-1.801 -0.74,-0.23 -0.86,-0.859 -0.39,-1.789 -3.87,-3.91 -6.88,-8.25 -9.07,-13.09 -2.18,-4.84 -3.75,-10.621 -4.68,-17.383 0.47,-0.976 1.05,-1.718 1.79,-2.187 0.71,-0.512 1.57,-1.211 2.54,-2.191 0.98,0.98 2.78,1.21 5.43,0.75 2.66,-0.508 4.96,-0.239 6.92,0.699 2.42,0.98 4.68,2.191 6.87,3.633 2.19,1.449 4.49,2.886 6.88,4.378 5.35,3.86 10.78,7.969 16.33,12.301 5.58,4.379 11.01,8.707 16.32,13.09 14.03,12.539 27.46,25.348 40.28,38.43 12.81,13.051 25.74,26.609 38.79,40.629 1.44,1.449 1.6,1.679 0.39,0.699 -1.21,-0.93 -2.7,-2.149 -4.38,-3.629 -1.68,-1.449 -3.12,-2.539 -4.33,-3.238 -1.22,-0.742 -1.1,-0.121 0.35,1.789 3.4,2.929 6.52,6.289 9.41,10.16 2.93,3.867 5.82,7.269 8.71,10.16 3.87,4.367 7.5,8.938 10.9,13.789 3.4,4.84 6.99,9.68 10.86,14.488 0.51,0.973 1.21,1.602 2.19,1.832 0.97,0.239 1.44,0.59 1.44,1.098 0.98,1.91 1.57,3.633 1.84,5.082 0.23,1.442 0.82,2.649 1.8,3.629 0.97,5.781 2.65,11.481 5.07,17.031 2.43,5.551 4.38,11.02 5.82,16.328 4.81,9.653 9.18,19.571 13.05,29.731 3.87,10.152 8.48,19.84 13.79,29.019 5.31,11.602 10.74,21.872 16.33,30.821 5.54,8.941 10.97,18.281 16.29,27.929 4.84,5.313 8.47,10.782 10.9,16.332 2.42,5.54 5.54,10.27 9.41,14.141 2.93,0.969 5.47,2.418 7.62,4.367 2.18,1.922 4.96,2.891 8.36,2.891 0.97,0 2.07,-0.231 3.28,-0.738 1.17,-0.469 2.26,-0.231 3.24,0.738 2.89,-0.969 4.96,-3.16 6.17,-6.52 1.21,-3.398 1.92,-7.148 2.19,-11.25 0.23,-4.097 0,-8.089 -0.74,-11.949 -0.71,-3.91 -1.8,-6.801 -3.25,-8.711 1.45,-1.961 1.8,-4.5 1.06,-7.621 -0.7,-3.168 -1.8,-5.937 -3.24,-8.359 1.44,-3.399 0.97,-5.938 -1.45,-7.617 -2.42,-1.68 -3.16,-3.75 -2.19,-6.172 -1.95,-0.942 -2.89,-2.149 -2.89,-3.629 0,-1.449 -0.74,-2.66 -2.18,-3.602 0.97,-3.398 0.23,-6.289 -2.19,-8.711 -0.47,-0.968 -1.21,-2.418 -2.15,-4.367 -0.98,-1.922 -1.72,-4.101 -2.19,-6.531 -2.42,-0.969 -3.63,-2.301 -3.63,-3.981 0,-1.679 -0.47,-3.007 -1.45,-3.98 -0.97,-2.43 -2.07,-4.5 -3.28,-6.18 -1.21,-1.679 -2.03,-3.75 -2.54,-6.168 -2.42,-0.98 -3.98,-2.652 -4.68,-5.082 -0.75,-2.418 -2.07,-4.57 -4.03,-6.519 0,-0.981 -0.23,-1.68 -0.7,-2.192 -0.51,-0.468 -0.23,-0.937 0.7,-1.437 -4.8,-6.762 -9.18,-13.172 -13.04,-19.223 -3.87,-6.058 -7,-12.457 -9.42,-19.219 -2.42,-3.871 -4.49,-8.48 -6.17,-13.789 -1.68,-5.308 -3.01,-9.922 -3.98,-13.789 -0.98,-1.441 -2.19,-4.57 -3.64,-9.41 -0.47,-1.449 -1.09,-3.012 -1.83,-4.73 -0.71,-1.68 -1.57,-3.981 -2.54,-6.871 -0.47,-0.981 -1.06,-2.192 -1.8,-3.641 -0.74,-1.438 -1.09,-3.16 -1.09,-5.078 0,-1.442 -0.24,-2.891 -0.71,-4.332 v -0.739 c 0,-0.468 0.24,-0.98 0.71,-1.449 -2.42,-6.761 -4.96,-12.812 -7.62,-18.121 -2.66,-5.359 -5.2,-10.672 -7.62,-15.98 -2.42,-5.309 -4.33,-11.02 -5.78,-17.032 -1.44,-6.058 -2.42,-13.199 -2.93,-21.41 0.51,0 0.74,-0.109 0.74,-0.347 0,-0.27 -0.23,-0.391 -0.74,-0.391 0,-7.23 -0.11,-13.789 -0.35,-19.57 -0.23,-5.821 1.56,-12.11 5.43,-18.871 9.69,-2.418 18.98,-2.071 27.93,1.101 8.95,3.121 16.56,6.168 22.85,9.059 3.4,1.441 8.6,3.871 15.63,7.261 6.99,3.36 14.96,7.11 23.9,11.25 8.95,4.11 18.52,8.321 28.67,12.661 10.16,4.379 20.32,8.238 30.47,11.64 1.45,-1.953 2.54,-3.633 3.25,-5.082 0.74,-1.48 -0.12,-3.398 -2.54,-5.82 -0.94,0 -1.8,-0.348 -2.54,-1.09 -0.71,-0.699 -1.33,-1.09 -1.8,-1.09 0,-0.469 0.47,-0.711 1.45,-0.711 v -0.738 c -1.92,-0.98 -3.99,-2.148 -6.18,-3.629 -2.14,-1.449 -4.68,-2.66 -7.61,-3.601 0,-0.5 -0.12,-0.739 -0.35,-0.739 -0.24,0 -0.36,-0.472 -0.36,-1.441 -3.86,0 -6.52,-0.981 -8,-2.891 -1.45,-1.961 -3.36,-3.398 -5.79,-4.379 -3.39,-2.422 -6.52,-4.961 -9.45,-7.621 -2.89,-2.648 -6.25,-5.429 -10.12,-8.32 0,0.941 -0.74,1.211 -2.18,0.711 -1.45,-0.469 -1.72,-0.981 -0.75,-1.449 -2.42,-0.469 -3.86,-1.09 -4.33,-1.801 -0.51,-0.738 -1.21,-1.32 -2.19,-1.828 z m -169.73,36.289 c 0,-0.512 -0.27,-0.75 -0.74,-0.75 l -1.44,-1.442 0.7,0.743 c 0,0 0.51,0.468 1.48,1.449 z m 229.22,2.148 c -0.97,0 -1.68,-0.238 -2.18,-0.711 0.5,0.473 1.21,0.711 2.18,0.711 z m -229.22,-2.148 c 0.47,0 0.71,0.109 0.71,0.347 0,0.231 0.23,0.352 0.74,0.352 -0.51,0 -0.74,-0.121 -0.74,-0.352 0,-0.238 -0.24,-0.347 -0.71,-0.347 z m 1.45,0.699 c 0,0 0.47,0.512 1.45,1.449 -0.47,-0.469 -0.98,-0.711 -1.45,-0.711 z" /><path
         id="path26"
         style="fill:#ef3340;fill-opacity:1;fill-rule:nonzero;stroke:none"
         d="m 2030.31,556.949 c -0.97,-1.48 -1.33,-2.687 -1.09,-3.629 0.23,-0.98 -0.63,-1.949 -2.54,-2.929 0,-0.942 -0.74,-1.442 -2.19,-1.442 -0.97,-2.429 -2.77,-3.871 -5.43,-4.34 -2.65,-0.507 -4.96,-1.949 -6.87,-4.379 -9.69,-2.89 -19.85,-6.519 -30.47,-10.851 -10.67,-4.379 -20.94,-9.07 -30.86,-14.149 -9.88,-5.07 -18.98,-10.269 -27.19,-15.621 -8.24,-5.308 -14.49,-10.629 -18.87,-15.937 -3.86,-3.871 -7.96,-7.973 -12.34,-12.344 -4.34,-4.34 -8.2,-9.18 -11.6,-14.488 -1.45,-3.871 -3.01,-8.719 -4.69,-14.539 -1.72,-5.781 -3.28,-11.481 -4.72,-17.031 -1.45,-5.54 -3.05,-10.5 -4.73,-14.879 -1.68,-4.34 -3.24,-6.993 -4.73,-7.969 -0.94,-1.91 -2.89,-4.613 -5.78,-7.973 -2.89,-3.398 -5.31,-4.84 -7.26,-4.371 -7.27,-3.359 -13.4,-2.887 -18.48,1.442 -5.08,4.378 -6.92,10.429 -5.47,18.171 0.98,4.84 3.16,12.071 6.52,21.758 3.4,9.641 5.59,17.141 6.57,22.5 0,0 0,0.231 0,0.699 0.46,1.442 0.7,2.891 0.7,4.372 3.87,6.761 7.03,13.75 9.45,21.019 2.42,7.262 5.31,14.262 8.67,21.051 0,0.469 0.39,0.82 1.1,1.058 0.74,0.274 1.09,0.622 1.09,1.09 2.42,9.692 5.43,19.223 9.06,28.672 3.64,9.418 6.92,18.481 9.81,27.192 0.47,1.949 1.21,3.398 2.19,4.378 0.93,0.93 1.91,2.141 2.89,3.59 2.42,0.981 4.49,1.95 6.17,2.93 1.68,0.98 3.51,1.449 5.43,1.449 0.97,0.973 2.19,1.442 3.63,1.442 0.98,0 2.07,-0.121 3.28,-0.352 1.17,-0.238 2.27,-0.391 3.24,-0.391 4.38,-0.468 7.5,-2.148 9.46,-5.078 5.78,-7.73 5.31,-14.961 -1.49,-21.761 -0.47,-3.86 -1.32,-7.731 -2.54,-11.598 -1.21,-3.871 -2.03,-7.231 -2.53,-10.16 16.95,12.578 33.63,21.289 50.07,26.14 16.45,4.84 31.68,7.731 45.71,8.707 3.86,0.473 8.32,0.942 13.4,1.442 5.07,0.469 9.57,-0.5 13.43,-2.891 z" /><path
         id="path28"
         style="fill:#ef3340;fill-opacity:1;fill-rule:nonzero;stroke:none"
         d="m 2051.33,430 c 1.44,-1.449 5.58,-0.859 12.34,1.801 6.76,2.648 15.12,6.289 25.04,10.898 9.88,4.571 20.9,9.762 33.01,15.582 12.07,5.821 24.18,10.86 36.25,15.239 3.4,0.968 7.38,2.421 11.99,4.332 4.57,1.949 8.09,3.628 10.51,5.078 3.87,2.422 7.73,4.84 11.6,7.269 3.87,2.422 8.48,4.102 13.79,5.071 1.91,0.468 2.89,1.332 2.89,2.539 0,1.211 0.23,0.863 0.74,-1.09 0.94,-0.469 1.68,-0.59 2.15,-0.348 0.51,0.231 0.98,0.109 1.48,-0.351 0,-1.961 -1.21,-4.61 -3.63,-8.008 l -5.08,-4.34 c -3.86,-3.402 -8,-6.641 -12.34,-9.801 -4.34,-3.133 -9.18,-5.902 -14.49,-8.32 -4.38,-3.871 -9.57,-7.5 -15.63,-10.903 -6.01,-3.398 -11.95,-6.527 -17.77,-9.418 -5.31,-1.949 -12.93,-6.281 -22.85,-13.082 -9.88,-6.757 -20.31,-13.75 -31.17,-21.019 -10.9,-7.258 -20.94,-13.668 -30.12,-19.219 -9.18,-5.582 -15.47,-7.609 -18.87,-6.172 -1.44,-1.437 -2.42,-2.066 -2.89,-1.828 -0.47,0.27 -1.44,0.391 -2.89,0.391 -7.73,0 -14.41,0.82 -19.96,2.539 -5.55,1.68 -10.27,5.191 -14.14,10.5 -1.45,5.82 -1.45,11.609 0,17.43 1.44,5.781 3.4,12.3 5.82,19.57 1.44,3.859 3.01,7.5 4.69,10.89 1.72,3.36 3.04,7 3.98,10.86 1.95,3.871 3.87,8.012 5.82,12.351 1.92,4.329 3.63,8.469 5.08,12.34 5.31,11.098 10.86,22.34 16.68,33.707 5.82,11.371 12.11,21.883 18.87,31.563 3.86,2.429 7.5,3.871 10.86,4.34 1.95,0.98 4.02,0.859 6.17,-0.352 2.19,-1.211 3.98,-1.328 5.47,-0.348 1.44,-1.961 3,-3.64 4.68,-5.082 1.72,-1.449 2.78,-3.398 3.29,-5.82 0.46,-3.359 0.82,-6.059 1.09,-7.969 0.23,-1.949 -0.12,-4.101 -1.09,-6.519 0.46,-3.403 -0.51,-7.031 -2.9,-10.903 -0.97,-1.449 -1.71,-3.007 -2.18,-4.687 -0.51,-1.723 -1.21,-3.512 -2.19,-5.473 -0.47,-0.468 -0.86,-0.578 -1.09,-0.347 -0.24,0.23 -0.59,0.121 -1.1,-0.352 -0.94,-0.508 -1.44,-1.211 -1.44,-2.187 0,-0.973 -0.47,-1.68 -1.45,-2.192 -3.4,-6.75 -6.99,-13.781 -10.86,-21.012 -3.87,-7.269 -7.5,-14.136 -10.9,-20.668 -3.39,-6.558 -5.82,-12.218 -7.26,-17.07 -1.45,-4.84 -1.45,-7.961 0,-9.41 z m 29.76,176.988 c -0.5,1.453 0.71,4.102 3.64,7.973 2.89,3.867 6.25,7.5 10.15,10.898 3.87,3.36 7.74,5.782 11.6,7.231 3.87,1.48 7,0.738 9.42,-2.149 0.98,0 1.83,-0.242 2.54,-0.742 0.74,-0.469 1.33,-0.711 1.79,-0.711 3.4,-3.867 4.5,-8.59 3.29,-14.179 -1.22,-5.539 -3.75,-9.289 -7.62,-11.207 0.47,-0.981 0.47,-1.602 0,-1.832 -0.47,-0.239 -0.7,-0.86 -0.7,-1.801 -1.49,0.941 -2.08,0.472 -1.84,-1.449 0.23,-1.95 -0.59,-2.418 -2.54,-1.481 0.47,-1.449 -0.12,-2.891 -1.8,-4.34 -1.72,-1.437 -2.54,-2.89 -2.54,-4.328 -0.97,0.469 -1.44,0.578 -1.44,0.348 0,-0.239 -0.51,-0.348 -1.49,-0.348 -0.93,-2.422 -3,-4.262 -6.13,-5.473 -3.16,-1.207 -5.47,-2.777 -6.91,-4.687 -0.98,0 -1.8,-0.27 -2.54,-0.742 -0.7,-0.469 -2.07,-0.239 -3.99,0.742 -2.89,0.937 -4.84,2.539 -5.82,4.687 -0.93,2.192 -1.32,4.723 -1.05,7.622 0.23,2.929 0.82,5.82 1.8,8.71 0.97,2.891 1.68,5.309 2.18,7.258 z" /><path
         id="path30"
         style="fill:#ef3340;fill-opacity:1;fill-rule:nonzero;stroke:none"
         d="m 2053.52,52.0703 c -5.32,3.8711 -9.54,8.3203 -12.7,13.3985 -3.12,5.082 -3.98,7.8515 -2.54,8.3593 -0.98,25.1211 5.08,51.4809 18.13,79.0629 13.08,27.539 30,54.769 50.78,81.597 20.82,26.84 43.51,52.461 68.2,76.883 24.65,24.449 48.13,46.559 70.35,66.399 3.4,2.429 7.74,6.14 13.05,11.21 5.35,5.079 9.45,8.598 12.34,10.551 4.85,2.418 8.13,4.219 9.81,5.43 1.68,1.211 2.77,2.07 3.24,2.539 0.51,0 1.6,2.191 3.28,6.52 1.68,4.378 2.07,6.531 1.09,6.531 1.92,3.398 3.36,5.929 4.34,7.609 0.98,1.719 1.84,3.289 2.54,4.731 0.74,1.449 1.33,3.007 1.84,4.73 0.46,1.68 1.44,4.449 2.89,8.32 0.97,2.418 1.79,4.84 2.54,7.258 0.74,2.422 0.58,5.082 -0.36,7.973 -0.97,0 -1.95,-1.442 -2.93,-4.332 -1.44,0 -2.14,-0.238 -2.14,-0.75 -0.98,-0.969 -1.96,-1.91 -2.93,-2.891 -0.94,-0.969 -1.92,-1.949 -2.89,-2.89 -2.43,-0.969 -4.11,-2.188 -5.08,-3.629 -4.34,-4.379 -8.83,-8.129 -13.4,-11.25 -4.61,-3.129 -8.83,-6.641 -12.7,-10.508 -1.48,-1.442 -4.14,-3.281 -8,-5.473 -3.87,-2.148 -7.97,-4.328 -12.31,-6.519 -4.37,-2.149 -8.59,-4.102 -12.69,-5.782 -4.15,-1.718 -7.39,-2.769 -9.81,-3.277 -0.98,-0.473 -3.75,-0.711 -8.36,-0.711 -4.57,0 -9.41,0.238 -14.49,0.711 -5.08,0.508 -9.92,0.969 -14.49,1.438 -4.61,0.511 -7.39,1.211 -8.36,2.191 h 1.44 c -0.97,0.469 -1.68,1.211 -2.18,2.191 -0.47,0.93 -1.68,1.438 -3.6,1.438 -1.95,2.891 -3.16,6.293 -3.63,10.16 -0.51,3.871 -0.51,7.973 0,12.34 0.47,4.34 1.21,8.441 2.15,12.312 0.97,3.86 1.95,7.258 2.93,10.149 1.44,2.43 2.77,4.961 3.98,7.621 1.21,2.66 2.31,5.199 3.24,7.617 0.98,0 1.49,0.231 1.49,0.742 0,0.469 0.47,0.7 1.44,0.7 1.45,3.871 5.2,9.57 11.25,17.07 6.02,7.5 12.93,15.238 20.67,23.211 7.73,7.969 15.11,15.469 22.11,22.5 7.03,6.988 11.99,11.949 14.88,14.84 0.47,0.507 1.68,1.488 3.63,2.929 1.92,1.45 4.1,2.891 6.53,4.34 2.42,1.442 4.57,2.891 6.52,4.371 1.95,1.449 3.4,2.149 4.34,2.149 5.35,2.89 10.66,6.172 15.97,9.8 5.31,3.641 10.63,6.411 15.98,8.321 1.91,0.98 3.87,1.609 5.78,1.84 1.95,0.238 3.4,0.347 4.37,0.347 7.74,-0.468 11.22,-2.187 10.51,-5.078 -0.74,-2.89 -3.28,-6.172 -7.61,-9.801 -4.38,-3.589 -9.46,-7.461 -15.24,-11.597 -5.82,-4.102 -9.92,-7.621 -12.34,-10.512 -3.4,-2.422 -6.53,-4.84 -9.42,-7.27 -2.93,-2.421 -5.31,-5.539 -7.26,-9.41 -2.42,-2.422 -5.08,-4.609 -7.97,-6.519 -2.93,-1.961 -4.84,-4.852 -5.82,-8.711 -2.89,-2.43 -5.67,-5.078 -8.32,-7.969 -2.66,-2.93 -4.96,-5.82 -6.92,-8.711 -4.84,-2.43 -8.59,-6.058 -11.25,-10.898 -2.65,-4.813 -5.89,-8.953 -9.76,-12.313 -3.87,-5.82 -7.62,-11.871 -11.25,-18.16 -3.63,-6.289 -6.64,-13.277 -9.06,-21.019 0,-1.442 -0.39,-2.891 -1.1,-4.372 -0.74,-1.449 -1.09,-2.66 -1.09,-3.597 1.91,-0.973 3.51,-1.211 4.73,-0.742 1.21,0.472 2.26,0.98 3.24,1.453 3.86,2.418 7.38,4.718 10.5,6.91 3.17,2.148 6.92,4.449 11.26,6.879 2.42,1.91 4.37,3.398 5.82,4.328 1.44,0.98 3.39,1.961 5.78,2.93 9.68,6.761 19.61,14.261 29.76,22.461 10.16,8.25 20.08,16.449 29.73,24.691 2.42,1.449 4.96,3.629 7.62,6.519 2.65,2.899 5.19,5.551 7.61,7.969 2.42,1.961 5.08,3.75 7.97,5.43 2.93,1.723 4.38,3.75 4.38,6.172 0.97,2.429 1.33,3.871 1.09,4.379 -0.23,0.468 0.82,1.91 3.24,4.34 1.45,1.441 3.05,3.281 4.73,5.429 1.68,2.18 4.49,3.281 8.36,3.281 1.44,0 2.77,-0.359 3.98,-1.101 1.21,-0.699 2.78,-0.859 4.69,-0.348 0.51,-0.98 1.48,-1.332 2.93,-1.09 1.45,0.231 2.66,-0.121 3.63,-1.101 3.87,-3.86 6.14,-7.262 6.88,-10.149 0.74,-2.89 0.58,-6.531 -0.35,-10.863 -1.45,-3.867 -2.54,-8.129 -3.28,-12.699 -0.71,-4.609 -2.04,-8.828 -3.99,-12.688 -0.98,-7.269 -2.77,-14.179 -5.43,-20.711 -2.65,-6.519 -4.73,-13.16 -6.17,-19.921 2.89,4.812 7.97,9.652 15.23,14.492 7.27,4.847 14.89,9.418 22.86,13.789 7.96,4.34 15.58,8.211 22.85,11.609 7.22,3.391 12.3,6.281 15.23,8.711 h 2.15 c 0.98,0.969 2.07,1.91 3.28,2.891 1.21,0.969 2.31,1.437 3.28,1.437 2.42,1.961 5.08,3.75 7.97,5.473 2.89,1.68 6.29,2.769 10.16,3.238 0,0.512 -0.24,0.75 -0.75,0.75 9.69,5.313 19.38,10.391 29.03,15.231 9.69,4.8 20.08,8.711 31.21,11.601 0,-0.511 -0.27,-0.742 -0.74,-0.742 -0.47,0 -0.71,-0.238 -0.71,-0.699 -0.5,-0.512 -1.09,-0.629 -1.83,-0.391 -0.7,0.27 -1.56,0.11 -2.54,-0.359 0.98,-0.969 1.44,-1.211 1.44,-0.699 0,0.468 0.51,0.699 1.45,0.699 0,-0.461 -0.12,-0.699 -0.35,-0.699 -0.24,0 -0.35,-0.512 -0.35,-1.481 1.91,-0.469 3,-0.359 3.24,0.391 0.27,0.699 0.86,1.09 1.83,1.09 -0.97,-1.95 -2.3,-3.051 -3.98,-3.282 -1.72,-0.238 -3.28,-1.328 -4.73,-3.281 0,-0.937 0.47,-0.937 1.45,0 -0.98,-1.918 -2.19,-3.008 -3.63,-3.238 -1.45,-0.238 -2.66,-0.86 -3.64,-1.84 0.51,-0.469 2.19,-0.23 5.08,0.738 -4.8,-2.886 -9.76,-5.187 -14.84,-6.867 -5.08,-1.723 -9.57,-4.492 -13.44,-8.359 -0.47,-0.981 0,-1.453 1.45,-1.453 -2.43,-2.418 -7,-6.168 -13.79,-11.25 -6.76,-5.079 -14.14,-10.387 -22.11,-15.969 -7.97,-5.551 -15.71,-10.86 -23.21,-15.942 -7.5,-5.078 -13.2,-9.058 -17.07,-11.949 -4.33,-2.929 -8.67,-5.828 -13.04,-8.719 -4.34,-2.929 -8.48,-6.281 -12.35,-10.152 -2.89,-0.976 -5.43,-2.187 -7.61,-3.629 -2.15,-1.449 -4.46,-3.168 -6.88,-5.078 l -5.82,-4.383 c -3.36,-2.379 -6.41,-4.449 -9.06,-6.129 -2.66,-1.718 -4.69,-4.257 -6.17,-7.621 -4.34,-2.929 -7.35,-7.258 -9.07,-13.078 -1.68,-5.781 -3.75,-11.371 -6.17,-16.68 -13.05,-29.5 -26.44,-60.71 -40.23,-93.558 -13.79,-32.891 -29.61,-64.453 -47.54,-94.692 -17.89,-30.23 -38.56,-57.421 -61.99,-81.601 -23.48,-24.1798 -50.9,-42.5392 -82.35,-55.1095 -5.82,-1.9609 -11.72,-3.289 -17.77,-3.9882 -6.06,-0.7422 -11.95,0.1171 -17.77,2.539 z m 204.57,297.3787 c -11.61,-11.09 -23.48,-22.57 -35.55,-34.449 -12.11,-11.84 -23.2,-22.852 -33.36,-33.012 -10.16,-10.148 -18.87,-19.218 -26.13,-27.187 -7.27,-7.961 -12.35,-13.672 -15.24,-17.031 -7.73,-9.68 -15.93,-19.61 -24.65,-29.758 -8.71,-10.16 -17.07,-20.903 -25.04,-32.274 -7.96,-11.359 -14.88,-23.359 -20.66,-35.898 -5.82,-12.57 -9.69,-26.129 -11.6,-40.6212 1.44,-0.9805 1.91,-3.0469 1.44,-6.168 -0.5,-3.1719 0.47,-5.9414 2.9,-8.3594 15.97,2.418 31.32,9.0586 46.05,19.9566 14.77,10.864 28.79,24.411 42.07,40.622 13.32,16.21 25.9,33.832 37.73,52.929 11.84,19.102 22.62,38.211 32.27,57.352 9.69,19.097 18.4,37.109 26.13,54.019 7.74,16.91 14.03,30.942 18.87,42.071 -0.98,1.949 -0.86,3.398 0.35,4.379 1.21,0.929 1.56,2.14 1.1,3.589 -2.43,-2.418 -5.55,-4.097 -9.42,-5.078 -3.87,-0.941 -6.29,-2.652 -7.26,-5.082 z" /><path
         id="path32"
         style="fill:#ef3340;fill-opacity:1;fill-rule:nonzero;stroke:none"
         d="m 2453.2,481.48 c 1.45,3.399 2.54,5.821 3.28,7.27 0.71,1.449 1.33,2.891 1.8,4.34 0.51,1.441 1.1,3.039 1.84,4.719 0.7,1.679 1.79,4.492 3.24,8.363 1.95,3.867 3.87,7.738 5.82,11.598 1.91,3.871 4.1,7 6.52,9.421 0,0.969 0.12,1.829 0.35,2.539 0.24,0.739 0.4,1.321 0.4,1.829 0.46,0.941 1.21,2.269 2.14,3.992 0.98,1.679 1.45,3.238 1.45,4.679 2.42,0.981 4.26,3.051 5.47,6.18 1.21,3.16 3.01,5.699 5.43,7.61 -0.47,0.98 -0.63,1.718 -0.35,2.191 0.23,0.469 0.35,1.211 0.35,2.187 4.33,2.891 8.71,5.551 13.04,7.973 4.38,2.418 8.95,3.117 13.79,2.18 4.34,-2.422 7.74,-5.821 10.16,-10.153 1.45,-4.847 1.21,-9.339 -0.74,-13.437 -1.92,-4.102 -4.1,-7.383 -6.53,-9.801 -2.42,-5.781 -4.45,-10.512 -6.17,-14.14 -1.68,-3.641 -3.24,-7.11 -4.69,-10.508 -1.44,-3.403 -3.04,-7.032 -4.72,-10.903 -1.68,-3.871 -3.99,-8.949 -6.88,-15.23 -2.42,-5.789 -4.72,-9.77 -6.91,-11.957 -2.15,-2.192 -4.69,-6.641 -7.62,-13.402 -0.47,-2.418 -2.03,-6.168 -4.69,-11.25 -2.69,-5.071 -4.72,-9.68 -6.17,-13.79 -1.44,-4.101 -1.44,-6.91 0,-8.359 1.45,-1.441 5.78,0.508 13.05,5.828 16.91,11.602 32.54,24.762 46.8,39.531 14.25,14.758 29.14,29.84 44.61,45.348 1.91,2.383 4.33,5.551 7.26,9.41 2.89,3.871 5.78,7.852 8.67,11.961 2.93,4.141 5.47,7.731 7.62,10.891 2.19,3.129 4.02,5.199 5.47,6.18 1.44,1.441 3.63,2.769 6.52,3.98 2.89,1.211 5.67,1.211 8.32,0 2.66,-1.211 4.85,-3.871 6.53,-7.969 1.72,-4.14 2.07,-10.551 1.09,-19.222 -2.42,-5.821 -4.45,-10.778 -6.17,-14.879 -1.68,-4.102 -3.01,-8.828 -3.99,-14.141 -0.93,-3.398 -2.03,-8.359 -3.24,-14.879 -1.21,-6.531 -2.19,-13.172 -2.89,-19.961 -0.74,-6.758 -0.86,-12.929 -0.39,-18.48 0.51,-5.59 1.95,-8.828 4.38,-9.809 5.78,-2.422 11.21,-3 16.28,-1.789 5.08,1.207 10.32,3.469 15.63,6.867 15,7.274 25.51,12.461 31.56,15.59 6.02,3.16 11.1,5.82 15.24,8.012 4.1,2.14 9.18,4.449 15.23,6.871 6.02,2.418 16.8,6.289 32.27,11.598 -0.47,-0.469 -0.75,-1.68 -0.75,-3.629 -0.93,-0.469 -0.7,-0.59 0.75,-0.352 1.44,0.231 2.42,0.352 2.89,0.352 -0.98,-3.871 -3.64,-7.34 -7.97,-10.508 -4.38,-3.121 -7.97,-5.942 -10.9,-8.32 -0.47,0 -1.68,-0.981 -3.63,-2.93 -1.92,-1.91 -3.13,-2.891 -3.6,-2.891 l -42.07,-26.133 c -11.13,-6.757 -21.29,-12.808 -30.47,-18.128 -9.21,-5.309 -14.53,-7.969 -15.97,-7.969 -3.87,-1.442 -6.64,-2.422 -8.36,-2.891 -1.68,-0.5 -4.46,-1.211 -8.32,-2.18 -3.87,-0.98 -7.74,-1.21 -11.6,-0.75 -3.87,0.508 -7.04,1.219 -9.46,2.192 -5.31,1.957 -8.94,5.308 -10.86,10.156 -1.95,4.844 -3.04,10.152 -3.28,15.973 -0.23,5.789 0.12,11.719 1.1,17.777 0.97,6.012 1.68,11.211 2.18,15.582 -0.5,2.891 -0.5,5.32 0,7.27 0.47,1.91 1.21,4.101 2.19,6.519 -1.95,-1.48 -3.63,-3.16 -5.08,-5.078 -1.48,-1.949 -3.4,-3.391 -5.82,-4.371 -1.44,-1.91 -2.77,-3.129 -3.98,-3.629 -1.21,-0.473 -2.31,-0.941 -3.28,-1.449 -0.94,-0.473 -2.03,-1.211 -3.25,-2.152 -1.21,-0.969 -2.3,-2.418 -3.28,-4.372 -1.44,0 -2.3,-0.238 -2.54,-0.699 -0.23,-0.508 -0.58,-0.98 -1.09,-1.488 -0.47,0 -0.7,-0.941 -0.7,-2.891 -5.31,-4.84 -10.16,-8.32 -14.53,-10.511 -4.34,-2.18 -8.95,-5.938 -13.79,-11.25 -4.34,-2.418 -7.74,-5.43 -10.12,-9.059 -2.42,-3.629 -5.59,-6.641 -9.45,-9.059 -2.42,-2.929 -5.55,-5.082 -9.42,-6.531 -0.5,-0.969 -1.21,-1.949 -2.18,-2.93 -0.98,-0.929 -1.96,-1.441 -2.9,-1.441 -0.97,-3.359 -2.92,-5.668 -5.82,-6.879 -2.89,-1.211 -5.54,-3.281 -7.96,-6.172 -18.4,-2.886 -30.94,-1.437 -37.74,4.34 -6.76,5.82 -10.15,13.672 -10.15,23.594 0,9.918 2.3,21.019 6.91,33.359 4.57,12.348 9.53,23.828 14.84,34.449 z" /><path
         id="path34"
         style="fill:#ef3340;fill-opacity:1;fill-rule:nonzero;stroke:none"
         d="m 2799.96,408.238 c -3.87,-2.418 -8.08,-4.258 -12.69,-5.468 -4.61,-1.211 -9.07,-2.54 -13.44,-3.981 -5.78,-1.449 -12.31,-2.891 -19.57,-4.34 -7.27,-1.437 -14.49,-2.07 -21.76,-1.828 -7.27,0.27 -14.14,1.719 -20.66,4.367 -6.53,2.66 -12,7.114 -16.33,13.403 -3.4,4.379 -5.31,9.687 -5.82,15.98 -0.47,6.289 0,12.688 1.44,19.219 1.49,6.519 3.52,13.039 6.17,19.57 2.66,6.52 5.47,12.461 8.36,17.77 2.43,1.949 4.34,4.371 5.79,7.269 1.48,2.891 2.42,5.313 2.93,7.262 10.15,12.07 20.66,23.668 31.52,34.809 10.9,11.128 22.15,19.839 33.75,26.128 5.31,3.364 10.9,6.293 16.68,8.711 5.82,2.379 11.13,4.801 15.97,7.231 1.92,0.969 3.48,1.949 4.69,2.89 1.21,0.969 3.05,1.481 5.47,1.481 17.38,0 28.75,-3.051 34.06,-9.102 5.36,-6.019 8.01,-11.949 8.01,-17.73 -0.51,-1.957 -2.19,-4.149 -5.08,-6.57 -2.93,-2.418 -5.07,-4.797 -6.52,-7.219 -2.42,-2.43 -4.61,-4.731 -6.56,-6.918 -1.92,-2.152 -3.36,-4.223 -4.34,-6.172 -19.33,-16.91 -38.67,-31.91 -58.05,-44.961 -4.8,-3.867 -11.21,-6.519 -19.21,-7.969 -7.97,-1.449 -16.06,-1.718 -24.3,-0.742 -2.89,-2.887 -5.78,-6.637 -8.71,-11.25 -2.89,-4.566 -5.2,-9.418 -6.88,-14.488 -1.68,-5.078 -2.42,-10.16 -2.18,-15.238 0.23,-5.082 2.3,-9.301 6.17,-12.692 9.68,-0.98 18.12,0 25.39,2.891 7.26,2.929 14.26,5.308 21.05,7.258 5.31,1.453 10.86,3.132 16.68,5.082 5.78,1.91 10.86,3.871 15.24,5.82 10.15,4.809 18.47,8.789 25,11.949 6.52,3.129 12.69,6.18 18.51,9.07 5.78,2.891 11.84,6.051 18.13,9.411 6.29,3.398 14.25,7.769 23.94,13.089 7.74,3.86 15.59,7.848 23.56,11.95 8.01,4.101 15.62,8.121 22.85,11.992 2.93,2.379 5.58,4.219 8.01,5.43 2.42,1.207 5.54,2.308 9.41,3.238 0.51,0 1.09,0.281 1.84,0.75 0.7,0.461 1.32,0.738 1.79,0.738 4.34,0 6.53,-0.738 6.53,-2.187 0,-1.442 -1.1,-3.52 -3.25,-6.172 -2.18,-2.66 -4.84,-5.43 -8,-8.36 -3.13,-2.89 -5.67,-5.781 -7.62,-8.668 0.51,0 -0.12,-0.632 -1.8,-1.839 -1.68,-1.211 -3.63,-2.422 -5.82,-3.633 -2.15,-1.207 -4.1,-2.418 -5.78,-3.629 -1.72,-1.18 -2.54,-1.801 -2.54,-1.801 -5.31,-3.867 -11.87,-8.09 -19.61,-12.699 -7.73,-4.61 -15.47,-9.18 -23.2,-13.789 -7.73,-4.571 -15,-8.821 -21.76,-12.692 -6.76,-3.871 -11.83,-6.519 -15.23,-7.968 z m -52.23,74.692 c 4.34,0 8.6,1.211 12.7,3.629 4.1,2.421 8.09,4.851 11.95,7.269 9.69,7.731 19.61,16.332 29.77,25.742 10.15,9.45 19.33,18.981 27.54,28.668 0.97,0 1.44,0.711 1.44,2.153 -17.38,-6.289 -32.73,-15.469 -46.05,-27.539 -13.28,-12.114 -25.74,-25.391 -37.35,-39.922 z" /><path
         id="path36"
         style="fill:#ef3340;fill-opacity:1;fill-rule:nonzero;stroke:none"
         d="m 3111.88,435.781 c 9.17,3.399 17.42,4.84 24.68,4.379 7.23,-0.512 11.6,-2.308 13.05,-5.469 1.44,-3.132 -1.09,-6.992 -7.62,-11.601 -6.52,-4.57 -18.75,-9.301 -36.64,-14.141 -0.97,-0.469 -4.45,-1.449 -10.51,-2.898 -6.05,-1.442 -12.34,-2.77 -18.86,-3.981 -6.53,-1.211 -12.11,-2.3 -16.68,-3.281 -4.61,-0.98 -5.94,-1.211 -3.99,-0.699 -4.84,-0.981 -11.01,-2.82 -18.51,-5.469 -7.5,-2.66 -15.47,-5.32 -23.95,-7.973 -8.44,-2.66 -16.44,-4.957 -23.9,-6.878 -7.5,-1.95 -13.68,-2.418 -18.52,-1.481 -1.45,0 -3.13,-0.238 -5.08,-0.699 -1.95,-0.469 -3.87,-0.238 -5.82,0.699 -1.44,-0.937 -3.75,-1.68 -6.87,-2.148 -3.13,-0.512 -5.94,-1.211 -8.36,-2.192 -2.39,0.981 -5.2,0.981 -8.32,0 -3.17,-0.969 -6.18,-0.969 -9.07,0 -1.44,-0.469 -3.28,-0.109 -5.46,1.102 -2.15,1.211 -4.46,2.539 -6.88,3.98 -2.89,0.469 -4.22,1.207 -3.98,2.188 0.23,0.98 -0.36,2.152 -1.8,3.633 -2.93,9.179 -2.54,18.007 1.05,26.449 3.64,8.469 8.95,16.32 15.98,23.59 6.99,7.269 14.49,13.789 22.5,19.57 7.97,5.82 14.61,11.129 19.92,15.98 0.51,0.969 2.07,2.539 4.73,4.719 2.65,2.149 5.43,4.57 8.36,7.231 2.89,2.66 5.66,4.961 8.32,6.91 2.65,1.918 4.22,2.898 4.73,2.898 0.97,1.442 2.03,2.531 3.24,3.281 1.21,0.7 2.3,1.559 3.28,2.54 1.44,2.89 2.77,4.8 3.98,5.781 1.21,0.969 2.42,1.558 3.64,1.828 1.21,0.242 2.53,0.82 3.98,1.801 1.45,0.98 3.16,2.89 5.08,5.82 2.89,2.891 5.82,5.66 8.71,8.32 2.89,2.66 5.31,4.961 7.26,6.91 1.92,1.918 3.01,3.481 3.25,4.692 0.23,1.207 -1.33,1.84 -4.73,1.84 -5.31,0 -11.33,-0.981 -18.12,-2.934 -6.76,-1.918 -13.52,-4.34 -20.32,-7.226 -6.75,-2.93 -13.04,-5.942 -18.86,-9.063 -5.79,-3.168 -10.39,-6.168 -13.75,-9.098 l -2.19,-1.453 c -1.45,-2.418 -3.63,-4.328 -6.53,-5.777 -2.92,-1.441 -6.05,-2.191 -9.45,-2.191 -3.36,0 -6.64,0.75 -9.76,2.191 -3.17,1.449 -5.2,4.34 -6.18,8.711 -1.95,8.207 -1.21,14.848 2.15,19.918 3.4,5.082 8.13,9.34 14.18,12.699 6.02,3.402 12.54,5.82 19.57,7.262 7.03,1.449 13.17,2.66 18.52,3.64 4.8,0.469 12.69,1.911 23.55,4.329 10.9,2.429 22.11,4.73 33.75,6.921 11.6,2.149 22.35,3.59 32.27,4.329 9.92,0.75 16.33,-0.579 19.22,-3.981 4.37,-5.82 5.43,-12.23 3.28,-19.219 -2.19,-7.031 -6.41,-12.23 -12.7,-15.59 -1.44,-5.351 -5.08,-9.679 -10.9,-13.082 0,-1.918 -1.91,-2.886 -5.78,-2.886 -0.97,-3.871 -2.93,-7.032 -5.82,-9.422 -2.89,-2.418 -5.82,-4.141 -8.71,-5.07 -8.2,-5.821 -17.26,-12.348 -27.19,-19.61 -9.92,-7.269 -19.49,-15.469 -28.67,-24.648 -10.62,-10.672 -19.45,-18.403 -26.48,-23.211 -6.99,-4.84 -11.49,-9.922 -13.4,-15.231 -2.89,0 -4.84,-1.949 -5.82,-5.82 18.4,4.34 35.78,8.09 52.23,11.25 16.44,3.129 30.74,5.66 42.81,7.621 12.11,1.91 21.52,3.117 28.28,3.629 6.8,0.469 10.16,0.469 10.16,0 0.5,0 2.3,0.23 5.47,0.699 3.12,0.512 6.64,1.211 10.5,2.192 z" /><path
         id="path38"
         style="fill:#ef3340;fill-opacity:1;fill-rule:evenodd;stroke:none"
         d="m 263.98,871.801 c 3.399,0 6.758,1.129 7.899,4.527 3.391,3.363 4.531,6.762 4.531,10.152 0,4.5 -1.14,7.899 -3.398,10.122 -3.711,3.75 -10.473,4.378 -15.903,1.988 C 114.262,889.961 0,768.359 0,624.73 0,557.031 25.9414,491.602 71.0898,441.949 131.988,375.391 165.859,284.02 165.859,185.859 V 172.34 H 285.43 V 144.141 H 171.48 V 62.8906 H 344.102 V 35.8203 h -20.313 c -7.891,0 -13.559,-5.6211 -13.559,-13.5195 0,-7.9219 5.668,-13.5508 13.559,-13.5508 h 47.383 V 91.0898 H 198.551 V 115.941 H 312.5 V 199.41 H 192.93 C 190.66,299.801 154.57,392.34 91.3711,461.129 50.7813,506.25 28.1992,563.789 28.1992,624.73 27.0703,755.59 133.121,866.172 263.98,871.801 Z" /><path
         id="path40"
         style="fill:#3f4444;fill-opacity:1;fill-rule:evenodd;stroke:none"
         d="m 331.68,879.691 c -2.27,-6.761 1.129,-14.652 9.019,-16.921 0.981,0 1.723,-0.192 2.27,-0.348 0.742,-0.192 1.133,-0.313 1.133,0.348 6.757,0 11.289,4.5 13.519,10.16 2.258,6.761 -1.141,14.648 -9.031,16.91 -6.75,1.14 -14.641,-2.262 -16.91,-10.149 z" /><path
         id="path42"
         style="fill:#3f4444;fill-opacity:1;fill-rule:evenodd;stroke:none"
         d="m 407.27,849.219 c -4.5,-6.758 -3.399,-14.649 3.39,-19.18 3.36,-1.129 5.629,-2.23 7.891,-2.23 4.5,0 9.027,1.101 11.289,5.632 4.5,6.758 3.359,14.649 -3.391,19.18 -6.758,4.527 -14.648,3.399 -19.179,-3.402 z" /><path
         id="path44"
         style="fill:#3f4444;fill-opacity:1;fill-rule:evenodd;stroke:none"
         d="m 470.43,797.34 c -5.629,-4.531 -6.758,-13.551 -2.231,-19.18 2.231,-3.39 6.762,-5.66 10.16,-5.66 3.36,0 6.762,1.129 9.02,3.398 5.633,4.532 6.762,13.551 2.23,19.18 -4.488,5.66 -13.519,6.762 -19.179,2.262 z" /><path
         id="path46"
         style="fill:#3f4444;fill-opacity:1;fill-rule:evenodd;stroke:none"
         d="m 124.102,625.859 c 0,80.082 65.429,145.551 144.418,144.411 v 28.21 c -94.77,0 -172.6216,-77.859 -172.6216,-172.621 z" /><path
         id="path48"
         style="fill:#3f4444;fill-opacity:1;fill-rule:evenodd;stroke:none"
         d="m 513.32,728.52 c -6.8,-3.399 -10.16,-11.29 -7.89,-18.051 2.23,-5.629 6.761,-9.02 13.519,-9.02 1.129,0 3.391,1.129 4.531,1.129 6.75,3.363 10.149,11.293 7.891,18.043 -3.402,6.758 -11.293,10.16 -18.051,7.899 z" /><path
         id="path50"
         style="fill:#3f4444;fill-opacity:1;fill-rule:evenodd;stroke:none"
         d="m 533.629,649.531 c -7.891,0 -13.551,-6.761 -13.551,-14.652 0,-7.891 6.762,-13.551 14.692,-13.551 7.89,0 13.511,6.793 13.511,14.692 0,7.89 -6.761,13.511 -14.652,13.511 z" /><path
         id="path52"
         style="fill:#3f4444;fill-opacity:1;fill-rule:evenodd;stroke:none"
         d="m 511.051,558.16 c -2.262,-6.75 2.269,-14.64 9.027,-16.91 1.133,0 2.262,0 3.402,-1.129 5.622,0 11.29,4.527 13.508,10.149 2.274,6.761 -2.218,14.652 -9.019,16.921 -6.758,2.258 -14.649,-2.269 -16.918,-9.031 z" /><path
         id="path54"
         style="fill:#3f4444;fill-opacity:1;fill-rule:evenodd;stroke:none"
         d="m 478.359,488.238 c -4.531,-6.789 -3.398,-14.687 3.36,-19.218 2.261,-1.09 4.531,-2.219 7.89,-2.219 4.532,0 9.02,1.129 11.289,5.621 4.532,6.758 3.403,14.687 -3.359,19.18 -6.801,4.527 -14.687,3.398 -19.18,-3.364 z" /><path
         id="path56"
         style="fill:#3f4444;fill-opacity:1;fill-rule:evenodd;stroke:none"
         d="m 427.578,425.039 c -4.527,-6.758 -3.398,-14.648 3.402,-19.18 2.219,-2.269 4.489,-2.269 7.891,-2.269 4.488,0 9.02,2.269 11.25,5.672 4.527,6.758 2.258,14.648 -3.359,19.179 -5.672,4.489 -14.653,3.36 -19.184,-3.402 z" /><path
         id="path58"
         style="fill:#3f4444;fill-opacity:1;fill-rule:evenodd;stroke:none"
         d="m 385.82,350.59 c -2.269,-6.762 1.129,-14.649 7.891,-18.051 2.269,0 3.398,-1.129 5.668,-1.129 4.492,0 10.152,3.391 12.422,9.02 2.219,6.761 -1.141,14.691 -7.93,18.05 -6.762,2.258 -14.652,-1.14 -18.051,-7.89 z" /><path
         id="path60"
         style="fill:#3f4444;fill-opacity:1;fill-rule:evenodd;stroke:none"
         d="m 362.148,269.379 c -1.128,-6.801 3.403,-14.688 11.293,-15.828 h 2.219 c 6.801,0 12.43,4.539 13.559,11.289 1.133,6.762 -3.399,14.691 -11.289,15.781 -6.758,1.141 -14.649,-3.351 -15.782,-11.242 z" /><path
         id="path62"
         style="fill:#3f4444;fill-opacity:1;fill-rule:evenodd;stroke:none"
         d="m 367.77,172.34 c -3.36,0 -6.75,1.14 -10.149,4.5 -2.23,2.262 -4.5,5.66 -4.5,10.148 0,3.403 1.141,6.801 4.5,10.16 4.527,5.661 14.68,5.661 19.18,0 2.258,-2.269 4.527,-5.628 4.527,-10.16 0,-3.359 -1.129,-6.758 -4.527,-10.148 -1.141,-3.36 -4.5,-4.5 -9.031,-4.5 z" /><path
         id="path64"
         style="fill:#ef3340;fill-opacity:1;fill-rule:nonzero;stroke:none"
         d="m 661.02,8.75 h 11.0508 V 900 H 661.02 Z" /></g></g></svg>